<?xml version="1.0" encoding="UTF-8" standalone="no"?>
<svg
   xmlns:dc="http://purl.org/dc/elements/1.1/"
   xmlns:cc="http://creativecommons.org/ns#"
   xmlns:rdf="http://www.w3.org/1999/02/22-rdf-syntax-ns#"
   xmlns:svg="http://www.w3.org/2000/svg"
   xmlns="http://www.w3.org/2000/svg"
   xmlns:sodipodi="http://sodipodi.sourceforge.net/DTD/sodipodi-0.dtd"
   xmlns:inkscape="http://www.inkscape.org/namespaces/inkscape"
   aria-hidden="true"
   focusable="false"
   data-prefix="fas"
   data-icon="laptop-code"
   class="svg-inline--fa fa-laptop-code fa-w-20"
   role="img"
   viewBox="0 0 640 512"
   version="1.1"
   id="svg4"
   sodipodi:docname="laptop-code-solid.svg"
   inkscape:version="1.0.1 (3bc2e813f5, 2020-09-07)">
  <metadata
     id="metadata10">
    <rdf:RDF>
      <cc:Work
         rdf:about="">
        <dc:format>image/svg+xml</dc:format>
        <dc:type
           rdf:resource="http://purl.org/dc/dcmitype/StillImage" />
      </cc:Work>
    </rdf:RDF>
  </metadata>
  <defs
     id="defs8" />
  <sodipodi:namedview
     pagecolor="#ffffff"
     bordercolor="#666666"
     borderopacity="1"
     objecttolerance="10"
     gridtolerance="10"
     guidetolerance="10"
     inkscape:pageopacity="0"
     inkscape:pageshadow="2"
     inkscape:window-width="776"
     inkscape:window-height="480"
     id="namedview6"
     showgrid="false"
     inkscape:zoom="0.96875"
     inkscape:cx="320"
     inkscape:cy="256"
     inkscape:window-x="0"
     inkscape:window-y="0"
     inkscape:window-maximized="0"
     inkscape:current-layer="svg4" />
  <path
     fill="currentColor"
     d="m 255.03,261.65 c 6.25,6.25 16.38,6.25 22.63,0 l 11.31,-11.31 c 6.25,-6.25 6.25,-16.38 0,-22.63 L 253.25,192 288.96,156.28 c 6.25,-6.25 6.25,-16.38 0,-22.63 l -11.31,-11.31 c -6.25,-6.25 -16.38,-6.25 -22.63,0 l -58.34,58.34 c -6.25,6.25 -6.25,16.38 0,22.63 z m 96.01,-11.3 11.31,11.31 c 6.25,6.25 16.38,6.25 22.63,0 l 58.34,-58.34 c 6.25,-6.25 6.25,-16.38 0,-22.63 l -58.34,-58.34 c -6.25,-6.25 -16.38,-6.25 -22.63,0 l -11.31,11.31 c -6.25,6.25 -6.25,16.38 0,22.63 l 35.71,35.71 -35.71,35.72 c -6.25,6.25 -6.25,16.38 0,22.63 z M 624,416 H 381.54 c -0.74,19.81 -14.71,32 -32.74,32 H 288 c -18.69,0 -33.02,-17.47 -32.77,-32 H 16 c -8.8,0 -16,7.2 -16,16 v 16 c 0,35.2 28.8,64 64,64 h 512 c 35.2,0 64,-28.8 64,-64 v -16 c 0,-8.8 -7.2,-16 -16,-16 z M 576,48 C 576,21.6 554.4,0 528,0 H 112 C 85.6,0 64,21.6 64,48 V 384 H 576 Z M 512,320 H 128 V 64 h 384 z"
     id="path2"
     style="stroke-width:1;fill:#ff5420;fill-opacity:1" />
</svg>
